<?xml version="1.0" standalone="no"?>
<!DOCTYPE svg PUBLIC "-//W3C//DTD SVG 20010904//EN"
 "http://www.w3.org/TR/2001/REC-SVG-20010904/DTD/svg10.dtd">
<svg version="1.0" xmlns="http://www.w3.org/2000/svg"
 width="510.000000pt" height="152.000000pt" viewBox="0 0 510.000000 152.000000"
 preserveAspectRatio="xMidYMid meet">
<metadata>
Created by potrace 1.16, written by Peter Selinger 2001-2019
</metadata>
<g transform="translate(0.000000,152.000000) scale(0.100000,-0.100000)"
fill="#000000" stroke="none">
<path d="M0 760 l0 -760 2550 0 2550 0 0 760 0 760 -2550 0 -2550 0 0 -760z
m2221 337 l-3 -206 26 -26 25 -25 -60 0 c-55 0 -59 1 -45 16 13 13 16 46 16
209 0 190 0 194 -22 201 -20 6 -20 8 13 25 19 10 38 17 43 15 6 -1 9 -87 7
-209z m1534 -2 c1 -116 4 -219 6 -230 3 -16 -2 -21 -25 -23 -35 -4 -56 12 -38
30 8 8 12 67 12 199 0 182 -1 188 -21 194 -20 7 -20 8 7 26 56 37 57 34 59
-196z m-1825 65 c29 -69 65 -156 81 -195 16 -38 43 -83 60 -98 l30 -28 -63 3
-63 3 -1 35 c-1 20 -10 57 -22 83 l-21 47 -79 0 c-89 0 -99 -6 -127 -78 -14
-33 -15 -45 -5 -57 18 -22 3 -35 -41 -35 -40 0 -51 14 -24 34 8 6 55 99 105
206 76 164 107 218 116 207 1 -1 25 -58 54 -127z m1280 116 c30 -11 35 -18 38
-49 3 -37 -11 -51 -22 -22 -10 27 -69 55 -117 55 -57 0 -80 -16 -81 -59 -1
-43 30 -72 108 -100 34 -13 77 -35 95 -51 29 -24 34 -34 34 -72 0 -89 -56
-141 -154 -142 -75 0 -110 19 -127 69 -16 48 -17 55 -5 55 5 0 19 -15 30 -34
29 -46 81 -70 137 -61 46 7 84 41 84 77 0 34 -29 77 -58 84 -55 14 -118 46
-149 77 -26 24 -33 39 -33 69 0 45 22 83 59 103 32 17 114 18 161 1z m-2425
-76 c11 -1 48 2 83 6 73 8 122 -8 122 -38 0 -17 -5 -19 -27 -14 -71 16 -99 16
-138 -2 -39 -18 -41 -18 -84 1 -59 26 -104 16 -153 -33 -35 -34 -38 -42 -38
-92 0 -72 28 -111 148 -206 l91 -73 85 66 c101 78 144 127 152 175 8 43 21 61
40 53 22 -8 17 -54 -12 -112 -21 -41 -50 -72 -131 -139 -58 -48 -113 -91 -123
-96 -31 -14 -244 165 -282 238 -31 59 -22 153 18 202 47 59 87 76 164 70 36
-3 74 -6 85 -6z m-305 -14 c0 -8 -8 -30 -18 -48 -14 -27 -17 -52 -14 -145 3
-97 6 -113 21 -118 19 -6 36 -34 46 -78 3 -15 31 -55 61 -88 31 -34 62 -76 70
-95 18 -44 20 -344 2 -362 -18 -18 -238 -16 -263 2 -18 13 -19 19 -7 98 18
128 20 124 -67 227 -44 51 -81 105 -84 120 -7 34 4 96 43 256 39 156 48 173
98 181 28 4 42 14 54 35 18 30 58 41 58 15z m682 -26 c7 -11 23 -20 36 -20 13
0 36 -12 51 -28 23 -22 35 -54 65 -177 20 -83 36 -173 36 -201 0 -56 -4 -63
-97 -170 -68 -78 -73 -93 -57 -179 26 -143 24 -145 -135 -145 -160 0 -154 -8
-149 192 4 175 7 185 94 283 34 37 56 73 60 94 4 19 19 46 35 60 27 25 28 30
30 139 2 76 -1 116 -9 124 -7 7 -12 20 -12 30 0 25 36 23 52 -2z m1679 -73
c87 -58 87 -186 1 -231 -53 -27 -98 -30 -144 -7 -73 35 -95 98 -63 179 31 75
136 106 206 59z m582 2 c3 -11 1 -44 -5 -72 -21 -98 5 -152 80 -168 32 -7 28
-8 -23 -6 l-60 2 -3 -32 c-4 -39 12 -71 41 -83 16 -6 3 -9 -46 -9 l-68 -1 15
22 c24 34 23 313 0 326 -14 8 -14 11 7 26 32 22 56 20 62 -5z m476 7 c38 -20
51 -55 51 -141 0 -68 2 -75 27 -95 l27 -21 -49 3 -50 3 3 80 c3 71 1 84 -20
115 -22 32 -28 35 -72 34 -49 0 -49 0 -26 18 27 22 71 23 109 4z m518 -6 c3
-11 7 -20 9 -20 2 0 13 9 24 20 25 25 56 26 69 2 14 -26 -2 -46 -28 -37 -13 4
-33 4 -47 1 -23 -6 -24 -9 -24 -96 0 -54 4 -91 11 -96 17 -10 -10 -24 -48 -24
-31 0 -32 1 -22 28 5 16 9 64 7 108 -3 72 -5 79 -28 91 l-24 12 34 15 c47 20
61 20 67 -4z m-305 -15 c-41 -51 -19 -170 35 -194 30 -14 69 -14 94 -1 15 8
19 7 19 -4 0 -43 -111 -58 -165 -22 -64 42 -72 155 -15 216 34 37 60 41 32 5z
m529 4 c-26 -28 -31 -102 -10 -148 23 -53 90 -77 140 -51 29 16 24 -5 -7 -29
-44 -35 -134 -20 -171 28 -41 53 -28 160 24 200 34 27 49 27 24 0z m-2264
-199 c18 -14 41 -20 79 -20 69 0 102 -13 110 -44 12 -50 -43 -93 -131 -101
-67 -6 -115 21 -115 64 0 17 6 31 15 35 12 4 14 15 9 46 -7 45 -3 48 33 20z"/>
<path d="M362 1078 c-12 -15 -69 -233 -82 -313 -9 -59 -5 -69 60 -145 77 -90
100 -129 100 -171 l0 -39 91 0 92 0 -5 83 c-6 97 -11 107 -84 189 -35 40 -59
77 -67 105 -19 73 -57 66 -57 -12 0 -30 9 -53 36 -92 50 -72 34 -114 -21 -55
-64 68 -81 153 -45 228 17 35 20 58 18 135 -3 91 -13 115 -36 87z"/>
<path d="M1187 1083 c-4 -3 -7 -47 -7 -97 0 -71 4 -99 21 -133 30 -63 23 -128
-22 -191 -38 -55 -47 -62 -66 -55 -20 8 -16 24 22 77 26 37 35 60 35 90 0 78
-38 87 -57 13 -8 -27 -33 -66 -72 -109 -67 -75 -81 -111 -81 -205 l0 -63 90 0
90 0 0 45 c0 46 9 61 127 199 43 52 43 87 -3 269 -39 156 -53 185 -77 160z"/>
<path d="M2691 1064 c-26 -32 -28 -111 -6 -154 29 -57 112 -78 147 -38 41 47
35 138 -12 188 -38 41 -98 43 -129 4z"/>
</g>
</svg>
